<mxfile host="Electron" agent="Mozilla/5.0 (Macintosh; Intel Mac OS X 10_15_7) AppleWebKit/537.36 (KHTML, like Gecko) draw.io/24.7.17 Chrome/128.0.6613.36 Electron/32.0.1 Safari/537.36" version="24.7.17">
  <diagram name="Page-1" id="k9lbiODQA3UyRVIxScPs">
    <mxGraphModel dx="867" dy="563" grid="1" gridSize="10" guides="1" tooltips="1" connect="1" arrows="1" fold="1" page="1" pageScale="1" pageWidth="827" pageHeight="1169" math="0" shadow="0">
      <root>
        <mxCell id="0" />
        <mxCell id="1" parent="0" />
        <mxCell id="eIH_Oz8A9cutq7Pem2TI-1" value="" style="rounded=1;whiteSpace=wrap;html=1;strokeWidth=3;fillColor=#f5f5f5;strokeColor=#000000;fontColor=#333333;movable=1;resizable=1;rotatable=1;deletable=1;editable=1;locked=0;connectable=1;container=0;" parent="1" vertex="1">
          <mxGeometry x="70" y="540" width="440" height="110" as="geometry" />
        </mxCell>
        <mxCell id="eIH_Oz8A9cutq7Pem2TI-37" style="edgeStyle=orthogonalEdgeStyle;rounded=0;orthogonalLoop=1;jettySize=auto;html=1;exitX=0.5;exitY=0;exitDx=0;exitDy=0;entryX=0.5;entryY=1;entryDx=0;entryDy=0;" parent="1" source="eIH_Oz8A9cutq7Pem2TI-4" target="eIH_Oz8A9cutq7Pem2TI-13" edge="1">
          <mxGeometry relative="1" as="geometry" />
        </mxCell>
        <mxCell id="eIH_Oz8A9cutq7Pem2TI-38" value="" style="edgeStyle=orthogonalEdgeStyle;rounded=0;orthogonalLoop=1;jettySize=auto;html=1;fillColor=#bac8d3;strokeColor=#000000;strokeWidth=2;" parent="1" source="eIH_Oz8A9cutq7Pem2TI-4" target="eIH_Oz8A9cutq7Pem2TI-13" edge="1">
          <mxGeometry relative="1" as="geometry" />
        </mxCell>
        <mxCell id="eIH_Oz8A9cutq7Pem2TI-40" style="edgeStyle=orthogonalEdgeStyle;rounded=1;orthogonalLoop=1;jettySize=auto;html=1;exitX=0.5;exitY=0;exitDx=0;exitDy=0;entryX=0;entryY=0.5;entryDx=0;entryDy=0;curved=0;strokeWidth=2;fillColor=#bac8d3;strokeColor=#000000;" parent="1" source="eIH_Oz8A9cutq7Pem2TI-4" target="eIH_Oz8A9cutq7Pem2TI-17" edge="1">
          <mxGeometry relative="1" as="geometry">
            <Array as="points">
              <mxPoint x="140" y="660" />
              <mxPoint x="60" y="660" />
              <mxPoint x="60" y="502" />
            </Array>
          </mxGeometry>
        </mxCell>
        <mxCell id="eIH_Oz8A9cutq7Pem2TI-4" value="User&lt;div&gt;Embedding&lt;/div&gt;" style="rounded=1;whiteSpace=wrap;html=1;fillColor=#bac8d3;strokeColor=#23445d;strokeWidth=3;" parent="1" vertex="1">
          <mxGeometry x="80" y="670" width="120" height="40" as="geometry" />
        </mxCell>
        <mxCell id="eIH_Oz8A9cutq7Pem2TI-39" style="edgeStyle=orthogonalEdgeStyle;rounded=0;orthogonalLoop=1;jettySize=auto;html=1;exitX=0.5;exitY=0;exitDx=0;exitDy=0;entryX=0.5;entryY=1;entryDx=0;entryDy=0;fillColor=#f8cecc;strokeColor=#000000;strokeWidth=2;" parent="1" source="eIH_Oz8A9cutq7Pem2TI-7" target="eIH_Oz8A9cutq7Pem2TI-36" edge="1">
          <mxGeometry relative="1" as="geometry" />
        </mxCell>
        <mxCell id="eIH_Oz8A9cutq7Pem2TI-41" style="edgeStyle=orthogonalEdgeStyle;rounded=1;orthogonalLoop=1;jettySize=auto;html=1;exitX=0.5;exitY=0;exitDx=0;exitDy=0;entryX=1;entryY=0.5;entryDx=0;entryDy=0;fillColor=#f8cecc;strokeColor=#000000;curved=0;strokeWidth=2;" parent="1" source="eIH_Oz8A9cutq7Pem2TI-7" target="eIH_Oz8A9cutq7Pem2TI-19" edge="1">
          <mxGeometry relative="1" as="geometry">
            <Array as="points">
              <mxPoint x="275" y="660" />
              <mxPoint x="520" y="660" />
              <mxPoint x="520" y="502" />
            </Array>
          </mxGeometry>
        </mxCell>
        <mxCell id="eIH_Oz8A9cutq7Pem2TI-7" value="Item&lt;div&gt;Embedding&lt;/div&gt;" style="rounded=1;whiteSpace=wrap;html=1;fillColor=#f8cecc;strokeColor=#b85450;strokeWidth=3;" parent="1" vertex="1">
          <mxGeometry x="215" y="670" width="120" height="40" as="geometry" />
        </mxCell>
        <mxCell id="eIH_Oz8A9cutq7Pem2TI-42" style="edgeStyle=orthogonalEdgeStyle;rounded=0;orthogonalLoop=1;jettySize=auto;html=1;exitX=0.5;exitY=0;exitDx=0;exitDy=0;entryX=0.5;entryY=1;entryDx=0;entryDy=0;strokeWidth=2;" parent="1" source="eIH_Oz8A9cutq7Pem2TI-13" target="eIH_Oz8A9cutq7Pem2TI-17" edge="1">
          <mxGeometry relative="1" as="geometry" />
        </mxCell>
        <mxCell id="eIH_Oz8A9cutq7Pem2TI-48" style="edgeStyle=orthogonalEdgeStyle;rounded=1;orthogonalLoop=1;jettySize=auto;html=1;exitX=0.5;exitY=0;exitDx=0;exitDy=0;entryX=0.25;entryY=1;entryDx=0;entryDy=0;curved=0;strokeWidth=2;" parent="1" source="eIH_Oz8A9cutq7Pem2TI-13" target="eIH_Oz8A9cutq7Pem2TI-15" edge="1">
          <mxGeometry relative="1" as="geometry">
            <Array as="points">
              <mxPoint x="140" y="560" />
              <mxPoint x="360" y="560" />
              <mxPoint x="360" y="640" />
              <mxPoint x="410" y="640" />
            </Array>
          </mxGeometry>
        </mxCell>
        <mxCell id="eIH_Oz8A9cutq7Pem2TI-13" value="User Aspect &lt;i&gt;a&lt;/i&gt;&lt;div&gt;Embedding&lt;/div&gt;" style="rounded=1;whiteSpace=wrap;html=1;fillColor=#e1d5e7;strokeColor=#9673a6;strokeWidth=3;" parent="1" vertex="1">
          <mxGeometry x="80" y="580" width="120" height="40" as="geometry" />
        </mxCell>
        <mxCell id="eIH_Oz8A9cutq7Pem2TI-64" style="edgeStyle=orthogonalEdgeStyle;rounded=0;orthogonalLoop=1;jettySize=auto;html=1;exitX=0.5;exitY=0;exitDx=0;exitDy=0;strokeWidth=2;" parent="1" source="eIH_Oz8A9cutq7Pem2TI-15" edge="1">
          <mxGeometry relative="1" as="geometry">
            <mxPoint x="440" y="560" as="targetPoint" />
          </mxGeometry>
        </mxCell>
        <mxCell id="eIH_Oz8A9cutq7Pem2TI-15" value="Aspect &lt;i&gt;a&lt;/i&gt;&lt;div&gt;Rating Prediction&lt;/div&gt;" style="rounded=1;whiteSpace=wrap;html=1;fillColor=#d5e8d4;strokeColor=#82b366;strokeWidth=3;" parent="1" vertex="1">
          <mxGeometry x="380" y="580" width="120" height="40" as="geometry" />
        </mxCell>
        <mxCell id="OmjPXx0WtsyiysF5l3vX-1" style="edgeStyle=orthogonalEdgeStyle;rounded=1;orthogonalLoop=1;jettySize=auto;html=1;exitX=0.5;exitY=0;exitDx=0;exitDy=0;entryX=0.25;entryY=1;entryDx=0;entryDy=0;strokeWidth=2;curved=0;" edge="1" parent="1" source="eIH_Oz8A9cutq7Pem2TI-17" target="eIH_Oz8A9cutq7Pem2TI-23">
          <mxGeometry relative="1" as="geometry" />
        </mxCell>
        <mxCell id="eIH_Oz8A9cutq7Pem2TI-17" value="User&lt;div&gt;Attention&lt;/div&gt;" style="rounded=1;whiteSpace=wrap;html=1;fillColor=#bac8d3;strokeColor=#23445d;strokeWidth=3;" parent="1" vertex="1">
          <mxGeometry x="80" y="482" width="120" height="40" as="geometry" />
        </mxCell>
        <mxCell id="OmjPXx0WtsyiysF5l3vX-2" style="edgeStyle=orthogonalEdgeStyle;rounded=1;orthogonalLoop=1;jettySize=auto;html=1;exitX=0.5;exitY=0;exitDx=0;exitDy=0;entryX=0.75;entryY=1;entryDx=0;entryDy=0;strokeColor=#000000;strokeWidth=2;curved=0;" edge="1" parent="1" source="eIH_Oz8A9cutq7Pem2TI-19" target="eIH_Oz8A9cutq7Pem2TI-23">
          <mxGeometry relative="1" as="geometry" />
        </mxCell>
        <mxCell id="eIH_Oz8A9cutq7Pem2TI-19" value="Item&lt;div&gt;Attention&lt;/div&gt;" style="rounded=1;whiteSpace=wrap;html=1;fillColor=#f8cecc;strokeColor=#b85450;strokeWidth=3;" parent="1" vertex="1">
          <mxGeometry x="215" y="482" width="120" height="40" as="geometry" />
        </mxCell>
        <mxCell id="eIH_Oz8A9cutq7Pem2TI-23" value="Overall&lt;div&gt;Rating Prediction&lt;/div&gt;" style="rounded=1;whiteSpace=wrap;html=1;fillColor=#d5e8d4;strokeColor=#82b366;strokeWidth=3;" parent="1" vertex="1">
          <mxGeometry x="150" y="402" width="120" height="40" as="geometry" />
        </mxCell>
        <mxCell id="eIH_Oz8A9cutq7Pem2TI-27" style="edgeStyle=none;curved=1;rounded=0;orthogonalLoop=1;jettySize=auto;html=1;entryX=0.5;entryY=1;entryDx=0;entryDy=0;fontSize=12;startSize=8;endSize=8;fillColor=#bac8d3;strokeColor=#000000;strokeWidth=2;" parent="1" source="eIH_Oz8A9cutq7Pem2TI-28" target="eIH_Oz8A9cutq7Pem2TI-4" edge="1">
          <mxGeometry relative="1" as="geometry" />
        </mxCell>
        <mxCell id="eIH_Oz8A9cutq7Pem2TI-28" value="User &lt;i&gt;u&lt;/i&gt;" style="text;html=1;align=center;verticalAlign=middle;resizable=0;points=[];autosize=1;strokeColor=none;fillColor=none;fontSize=16;" parent="1" vertex="1">
          <mxGeometry x="105" y="730" width="70" height="30" as="geometry" />
        </mxCell>
        <mxCell id="eIH_Oz8A9cutq7Pem2TI-29" style="edgeStyle=none;curved=1;rounded=0;orthogonalLoop=1;jettySize=auto;html=1;entryX=0.5;entryY=1;entryDx=0;entryDy=0;fontSize=12;startSize=8;endSize=8;fillColor=#f8cecc;strokeColor=#000000;strokeWidth=2;" parent="1" source="eIH_Oz8A9cutq7Pem2TI-30" target="eIH_Oz8A9cutq7Pem2TI-7" edge="1">
          <mxGeometry relative="1" as="geometry" />
        </mxCell>
        <mxCell id="eIH_Oz8A9cutq7Pem2TI-30" value="Item &lt;i&gt;i&lt;/i&gt;" style="text;html=1;align=center;verticalAlign=middle;resizable=0;points=[];autosize=1;strokeColor=none;fillColor=none;fontSize=16;" parent="1" vertex="1">
          <mxGeometry x="245" y="730" width="60" height="30" as="geometry" />
        </mxCell>
        <mxCell id="eIH_Oz8A9cutq7Pem2TI-43" style="edgeStyle=orthogonalEdgeStyle;rounded=0;orthogonalLoop=1;jettySize=auto;html=1;exitX=0.5;exitY=0;exitDx=0;exitDy=0;entryX=0.5;entryY=1;entryDx=0;entryDy=0;strokeWidth=2;" parent="1" source="eIH_Oz8A9cutq7Pem2TI-36" target="eIH_Oz8A9cutq7Pem2TI-19" edge="1">
          <mxGeometry relative="1" as="geometry" />
        </mxCell>
        <mxCell id="eIH_Oz8A9cutq7Pem2TI-49" style="edgeStyle=orthogonalEdgeStyle;rounded=1;orthogonalLoop=1;jettySize=auto;html=1;exitX=0.5;exitY=0;exitDx=0;exitDy=0;entryX=0.75;entryY=1;entryDx=0;entryDy=0;strokeWidth=2;curved=0;" parent="1" source="eIH_Oz8A9cutq7Pem2TI-36" target="eIH_Oz8A9cutq7Pem2TI-15" edge="1">
          <mxGeometry relative="1" as="geometry">
            <Array as="points">
              <mxPoint x="275" y="560" />
              <mxPoint x="360" y="560" />
              <mxPoint x="360" y="640" />
              <mxPoint x="470" y="640" />
            </Array>
          </mxGeometry>
        </mxCell>
        <mxCell id="eIH_Oz8A9cutq7Pem2TI-36" value="Item Aspect &lt;i&gt;a&lt;/i&gt;&lt;div&gt;Embedding&lt;/div&gt;" style="rounded=1;whiteSpace=wrap;html=1;fillColor=#e1d5e7;strokeColor=#9673a6;strokeWidth=3;" parent="1" vertex="1">
          <mxGeometry x="215" y="580" width="120" height="40" as="geometry" />
        </mxCell>
        <mxCell id="eIH_Oz8A9cutq7Pem2TI-65" value="&lt;i&gt;a &lt;/i&gt;rating" style="text;html=1;align=center;verticalAlign=middle;resizable=0;points=[];autosize=1;strokeColor=none;fillColor=none;" parent="1" vertex="1">
          <mxGeometry x="410" y="540" width="60" height="30" as="geometry" />
        </mxCell>
        <mxCell id="eIH_Oz8A9cutq7Pem2TI-69" value="(u, i)&amp;nbsp;&lt;span style=&quot;background-color: initial;&quot;&gt;rating&lt;/span&gt;" style="text;html=1;align=center;verticalAlign=middle;resizable=0;points=[];autosize=1;strokeColor=none;fillColor=none;" parent="1" vertex="1">
          <mxGeometry x="170" y="350" width="80" height="30" as="geometry" />
        </mxCell>
        <mxCell id="OmjPXx0WtsyiysF5l3vX-4" style="edgeStyle=orthogonalEdgeStyle;rounded=0;orthogonalLoop=1;jettySize=auto;html=1;exitX=0.5;exitY=0;exitDx=0;exitDy=0;entryX=0.508;entryY=1.028;entryDx=0;entryDy=0;entryPerimeter=0;strokeWidth=2;" edge="1" parent="1" source="eIH_Oz8A9cutq7Pem2TI-23" target="eIH_Oz8A9cutq7Pem2TI-69">
          <mxGeometry relative="1" as="geometry" />
        </mxCell>
      </root>
    </mxGraphModel>
  </diagram>
</mxfile>
